<svg width="128" height="128" viewBox="0 0 128 128" fill="none" xmlns="http://www.w3.org/2000/svg">
  <rect width="128" height="128" rx="36" fill="url(#paint0_radial)"/>
  <g filter="url(#paint1_drop)">
    <path d="M30 70.5C30 50.7882 45.7882 35 65.5 35C82.5163 35 96.6767 47.0334 99.5696 63H89.6369C87.0192 51.9346 77.3274 43.5 65.5 43.5C49.7315 43.5 36.5 56.7315 36.5 72.5C36.5 84.7127 44.2093 95.1744 55 99.4642V109.31C40.1698 104.463 30 88.9628 30 70.5Z" fill="url(#paint2_radial)"/>
    <path d="M98 57.5C98 77.2118 82.2118 93 62.5 93C45.4838 93 31.3233 80.9666 28.4304 65H38.3631C40.9808 76.0654 50.6726 84.5 62.5 84.5C78.2685 84.5 91.5 71.2685 91.5 55.5C91.5 43.2873 83.7907 32.8256 73 28.5358V18.69C87.8302 23.5372 98 39.0372 98 57.5Z" fill="url(#paint3_radial)"/>
  </g>
  <defs>
    <radialGradient id="paint0_radial" cx="0" cy="0" r="1" gradientUnits="userSpaceOnUse" gradientTransform="translate(64 32) rotate(90) scale(120)">
      <stop stop-color="#2A1939"/>
      <stop offset="1" stop-color="#140C1F"/>
    </radialGradient>
    <radialGradient id="paint2_radial" cx="0" cy="0" r="1" gradientUnits="userSpaceOnUse" gradientTransform="translate(65 37) rotate(96) scale(86)">
      <stop stop-color="#C4A7E7"/>
      <stop offset="1" stop-color="#6B4BA0"/>
    </radialGradient>
    <radialGradient id="paint3_radial" cx="0" cy="0" r="1" gradientUnits="userSpaceOnUse" gradientTransform="translate(63 27) rotate(96) scale(86)">
      <stop stop-color="#9CCFD8"/>
      <stop offset="1" stop-color="#3E8FB0"/>
    </radialGradient>
    <filter id="paint1_drop" x="22" y="18.69" width="84" height="96.62" filterUnits="userSpaceOnUse" color-interpolation-filters="sRGB">
      <feFlood flood-opacity="0" result="BackgroundImageFix"/>
      <feColorMatrix in="SourceAlpha" type="matrix" values="0 0 0 0 0 0 0 0 0 0 0 0 0 0 0 0 0 0 127 0" result="hardAlpha"/>
      <feOffset dy="4"/>
      <feGaussianBlur stdDeviation="4"/>
      <feColorMatrix type="matrix" values="0 0 0 0 0.05 0 0 0 0 0.02 0 0 0 0 0.12 0 0 0 0.4 0"/>
      <feBlend mode="normal" in2="BackgroundImageFix" result="effect1_dropShadow"/>
      <feBlend mode="normal" in="SourceGraphic" in2="effect1_dropShadow" result="shape"/>
    </filter>
  </defs>
</svg>
